<mxfile host="app.diagrams.net" modified="2023-04-04T08:17:38.342Z" agent="Mozilla/5.0 (Macintosh; Intel Mac OS X 10_15_7) AppleWebKit/537.36 (KHTML, like Gecko) Chrome/111.0.0.0 Safari/537.36" etag="FS_vPCLHXkjiE1BH-PCF" version="21.1.2" type="github">
  <diagram id="C5RBs43oDa-KdzZeNtuy" name="Page-1">
    <mxGraphModel dx="2331" dy="1966" grid="0" gridSize="10" guides="1" tooltips="1" connect="1" arrows="1" fold="1" page="0" pageScale="1" pageWidth="827" pageHeight="1169" math="0" shadow="0">
      <root>
        <mxCell id="WIyWlLk6GJQsqaUBKTNV-0" />
        <mxCell id="WIyWlLk6GJQsqaUBKTNV-1" parent="WIyWlLk6GJQsqaUBKTNV-0" />
        <mxCell id="akmJNxPO6BZ34CS4fUWW-8" value="" style="rounded=0;whiteSpace=wrap;html=1;fontSize=15;fontColor=#ffffff;fillColor=#1ba1e2;labelBackgroundColor=#33FFFF;strokeColor=none;" vertex="1" parent="WIyWlLk6GJQsqaUBKTNV-1">
          <mxGeometry x="614" y="-304" width="766" height="729" as="geometry" />
        </mxCell>
        <mxCell id="dFzb2xotskJWM5kpIQJ3-4" value="&lt;span style=&quot;color: rgba(0, 0, 0, 0); font-family: monospace; font-size: 0px; text-align: start; background-color: rgb(251, 251, 251);&quot;&gt;%3CmxGraphModel%3E%3Croot%3E%3CmxCell%20id%3D%220%22%2F%3E%3CmxCell%20id%3D%221%22%20parent%3D%220%22%2F%3E%3CmxCell%20id%3D%222%22%20value%3D%22%26lt%3Bfont%20color%3D%26quot%3B%23000000%26quot%3B%20style%3D%26quot%3Bfont-size%3A%2013px%3B%26quot%3B%26gt%3B%E6%95%B0%E6%8D%AE%E5%AD%98%E5%82%A8%26lt%3B%2Ffont%26gt%3B%22%20style%3D%22text%3Bhtml%3D1%3BstrokeColor%3Dnone%3BfillColor%3Dnone%3Balign%3Dcenter%3BverticalAlign%3Dmiddle%3BwhiteSpace%3Dwrap%3Brounded%3D0%3BfontSize%3D13%3BfontColor%3D%23FFFFFF%3B%22%20vertex%3D%221%22%20parent%3D%221%22%3E%3CmxGeometry%20x%3D%22235%22%20y%3D%22165%22%20width%3D%2260%22%20height%3D%2230%22%20as%3D%22geometry%22%2F%3E%3C%2FmxCell%3E%3C%2Froot%3E%3C%2FmxGraphModel%3E&lt;/span&gt;" style="rounded=0;whiteSpace=wrap;html=1;fontSize=15;fontColor=#FFFFFF;fillColor=#66B2FF;labelBackgroundColor=#33FFFF;strokeColor=none;" parent="WIyWlLk6GJQsqaUBKTNV-1" vertex="1">
          <mxGeometry x="395" y="-120" width="76" height="582" as="geometry" />
        </mxCell>
        <mxCell id="dFzb2xotskJWM5kpIQJ3-5" value="&lt;font color=&quot;#000000&quot; style=&quot;font-size: 12px;&quot;&gt;计算引擎&lt;/font&gt;" style="text;html=1;strokeColor=none;fillColor=none;align=center;verticalAlign=middle;whiteSpace=wrap;rounded=0;fontSize=12;fontColor=#FFFFFF;" parent="WIyWlLk6GJQsqaUBKTNV-1" vertex="1">
          <mxGeometry x="403" y="-97.5" width="60" height="30" as="geometry" />
        </mxCell>
        <mxCell id="dFzb2xotskJWM5kpIQJ3-6" value="SparkSQL" style="text;html=1;strokeColor=none;fillColor=none;align=center;verticalAlign=middle;whiteSpace=wrap;rounded=0;labelBackgroundColor=none;fontSize=12;fontColor=#000000;" parent="WIyWlLk6GJQsqaUBKTNV-1" vertex="1">
          <mxGeometry x="403" y="156.5" width="60" height="30" as="geometry" />
        </mxCell>
        <mxCell id="dFzb2xotskJWM5kpIQJ3-7" value="" style="rounded=0;whiteSpace=wrap;html=1;labelBackgroundColor=none;strokeColor=none;fontSize=12;fillColor=#FFFFFF;fontColor=#ffffff;" parent="WIyWlLk6GJQsqaUBKTNV-1" vertex="1">
          <mxGeometry x="742" y="-201" width="583" height="184" as="geometry" />
        </mxCell>
        <mxCell id="dFzb2xotskJWM5kpIQJ3-8" value="源数据" style="text;html=1;strokeColor=none;fillColor=none;align=center;verticalAlign=middle;whiteSpace=wrap;rounded=0;labelBackgroundColor=none;fontSize=12;fontColor=#000000;fontStyle=1" parent="WIyWlLk6GJQsqaUBKTNV-1" vertex="1">
          <mxGeometry x="996" y="-205" width="60" height="30" as="geometry" />
        </mxCell>
        <mxCell id="dFzb2xotskJWM5kpIQJ3-9" value="大特零售会员表" style="rounded=0;whiteSpace=wrap;html=1;labelBackgroundColor=none;strokeColor=none;fontSize=12;fontColor=#000000;fillColor=#B1DDF0;" parent="WIyWlLk6GJQsqaUBKTNV-1" vertex="1">
          <mxGeometry x="790" y="-160.5" width="120" height="45" as="geometry" />
        </mxCell>
        <mxCell id="dFzb2xotskJWM5kpIQJ3-10" value="大特零售订单表" style="rounded=0;whiteSpace=wrap;html=1;labelBackgroundColor=none;strokeColor=none;fontSize=12;fillColor=#b1ddf0;" parent="WIyWlLk6GJQsqaUBKTNV-1" vertex="1">
          <mxGeometry x="956" y="-159.5" width="146" height="44" as="geometry" />
        </mxCell>
        <mxCell id="dFzb2xotskJWM5kpIQJ3-11" value="大特零售订单明细表" style="rounded=0;whiteSpace=wrap;html=1;labelBackgroundColor=none;strokeColor=none;fontSize=12;fillColor=#b1ddf0;" parent="WIyWlLk6GJQsqaUBKTNV-1" vertex="1">
          <mxGeometry x="1149" y="-160.5" width="130" height="45" as="geometry" />
        </mxCell>
        <mxCell id="dFzb2xotskJWM5kpIQJ3-12" value="中间表" style="rounded=0;whiteSpace=wrap;html=1;labelBackgroundColor=none;fontSize=12;strokeColor=none;" parent="WIyWlLk6GJQsqaUBKTNV-1" vertex="1">
          <mxGeometry x="742" y="49" width="580" height="45" as="geometry" />
        </mxCell>
        <mxCell id="dFzb2xotskJWM5kpIQJ3-13" value="大特电商订单明细表" style="rounded=0;whiteSpace=wrap;html=1;labelBackgroundColor=none;strokeColor=none;fontSize=12;fillColor=#b1ddf0;" parent="WIyWlLk6GJQsqaUBKTNV-1" vertex="1">
          <mxGeometry x="790" y="-89.5" width="120" height="45" as="geometry" />
        </mxCell>
        <mxCell id="dFzb2xotskJWM5kpIQJ3-14" value="特步会员俱乐部公众号表" style="rounded=0;whiteSpace=wrap;html=1;labelBackgroundColor=none;strokeColor=none;fontSize=12;fillColor=#b1ddf0;" parent="WIyWlLk6GJQsqaUBKTNV-1" vertex="1">
          <mxGeometry x="955.75" y="-92" width="150" height="45" as="geometry" />
        </mxCell>
        <mxCell id="dFzb2xotskJWM5kpIQJ3-15" value="企业微信表" style="rounded=0;whiteSpace=wrap;html=1;labelBackgroundColor=none;strokeColor=none;fontSize=12;fillColor=#b1ddf0;" parent="WIyWlLk6GJQsqaUBKTNV-1" vertex="1">
          <mxGeometry x="1149" y="-95" width="130" height="45" as="geometry" />
        </mxCell>
        <mxCell id="dFzb2xotskJWM5kpIQJ3-16" value="" style="shape=flexArrow;endArrow=classic;html=1;rounded=0;strokeColor=#FFFFFF;" parent="WIyWlLk6GJQsqaUBKTNV-1" edge="1">
          <mxGeometry width="50" height="50" relative="1" as="geometry">
            <mxPoint x="979" y="156" as="sourcePoint" />
            <mxPoint x="979" y="206" as="targetPoint" />
          </mxGeometry>
        </mxCell>
        <mxCell id="dFzb2xotskJWM5kpIQJ3-17" value="加工以oneId为主键的明细数据" style="text;html=1;strokeColor=none;fillColor=none;align=center;verticalAlign=middle;whiteSpace=wrap;rounded=0;fontColor=#FFFFFF;fontStyle=0;fontSize=14;" parent="WIyWlLk6GJQsqaUBKTNV-1" vertex="1">
          <mxGeometry x="1015" y="5" width="200" height="10" as="geometry" />
        </mxCell>
        <mxCell id="dFzb2xotskJWM5kpIQJ3-19" value="" style="shape=flexArrow;endArrow=classic;html=1;rounded=0;strokeColor=#FFFFFF;" parent="WIyWlLk6GJQsqaUBKTNV-1" edge="1">
          <mxGeometry width="50" height="50" relative="1" as="geometry">
            <mxPoint x="982" y="-13" as="sourcePoint" />
            <mxPoint x="982" y="37" as="targetPoint" />
          </mxGeometry>
        </mxCell>
        <mxCell id="dFzb2xotskJWM5kpIQJ3-20" value="" style="shape=flexArrow;endArrow=classic;html=1;rounded=0;strokeColor=#FFFFFF;" parent="WIyWlLk6GJQsqaUBKTNV-1" edge="1">
          <mxGeometry width="50" height="50" relative="1" as="geometry">
            <mxPoint x="977.9999999999998" y="278" as="sourcePoint" />
            <mxPoint x="977.9999999999998" y="338" as="targetPoint" />
          </mxGeometry>
        </mxCell>
        <mxCell id="dFzb2xotskJWM5kpIQJ3-21" value="按照输入的维度（区域、类型）聚合分组" style="text;html=1;strokeColor=none;fillColor=none;align=center;verticalAlign=middle;whiteSpace=wrap;rounded=0;fontSize=14;fontColor=#FFFFFF;fontStyle=0" parent="WIyWlLk6GJQsqaUBKTNV-1" vertex="1">
          <mxGeometry x="1002" y="285" width="280" height="20" as="geometry" />
        </mxCell>
        <mxCell id="dFzb2xotskJWM5kpIQJ3-27" value="" style="rounded=0;whiteSpace=wrap;html=1;fontSize=14;fontColor=#ffffff;fillColor=#1ba1e2;strokeColor=#006EAF;" parent="WIyWlLk6GJQsqaUBKTNV-1" vertex="1">
          <mxGeometry x="1623" y="563" width="700" height="130" as="geometry" />
        </mxCell>
        <mxCell id="dFzb2xotskJWM5kpIQJ3-29" value="web页面表格展示、Excele下载" style="rounded=0;whiteSpace=wrap;html=1;shadow=0;fontSize=14;fillColor=#b1ddf0;strokeColor=#10739e;" parent="WIyWlLk6GJQsqaUBKTNV-1" vertex="1">
          <mxGeometry x="1624" y="501.12" width="699" height="61.88" as="geometry" />
        </mxCell>
        <mxCell id="dFzb2xotskJWM5kpIQJ3-35" value="整体人群数据" style="rounded=1;whiteSpace=wrap;html=1;" parent="WIyWlLk6GJQsqaUBKTNV-1" vertex="1">
          <mxGeometry x="1743" y="607.87" width="130" height="51.88" as="geometry" />
        </mxCell>
        <mxCell id="dFzb2xotskJWM5kpIQJ3-36" value="全部公司数据" style="rounded=1;whiteSpace=wrap;html=1;" parent="WIyWlLk6GJQsqaUBKTNV-1" vertex="1">
          <mxGeometry x="2058" y="607.87" width="130" height="51.88" as="geometry" />
        </mxCell>
        <mxCell id="dFzb2xotskJWM5kpIQJ3-38" value="cdp人群和中间表对撞，圈出人群明细数据" style="text;html=1;strokeColor=none;fillColor=none;align=center;verticalAlign=middle;whiteSpace=wrap;rounded=0;fontColor=#FFFFFF;fontStyle=0;fontSize=14;" parent="WIyWlLk6GJQsqaUBKTNV-1" vertex="1">
          <mxGeometry x="1015" y="176" width="271" height="10" as="geometry" />
        </mxCell>
        <mxCell id="akmJNxPO6BZ34CS4fUWW-7" value="输入（触达类别、活动周期、购买渠道、人群）" style="rounded=0;whiteSpace=wrap;html=1;fillColor=#FC7E00;fontSize=14;fontStyle=1;fontColor=#FFFFFF;strokeColor=none;" vertex="1" parent="WIyWlLk6GJQsqaUBKTNV-1">
          <mxGeometry x="612" y="-461" width="770" height="78" as="geometry" />
        </mxCell>
        <mxCell id="akmJNxPO6BZ34CS4fUWW-9" value="&lt;font style=&quot;font-size: 24px;&quot;&gt;存&lt;br style=&quot;font-size: 24px;&quot;&gt;储&lt;br style=&quot;font-size: 24px;&quot;&gt;层&lt;/font&gt;" style="text;html=1;strokeColor=none;fillColor=none;align=center;verticalAlign=middle;whiteSpace=wrap;rounded=0;fontSize=24;fontColor=#FFFFFF;fontStyle=1" vertex="1" parent="WIyWlLk6GJQsqaUBKTNV-1">
          <mxGeometry x="621" y="36" width="98" height="30" as="geometry" />
        </mxCell>
        <mxCell id="akmJNxPO6BZ34CS4fUWW-10" value="HDFS" style="rounded=0;whiteSpace=wrap;html=1;fillColor=#FFFFFF;strokeColor=none;fontSize=14;" vertex="1" parent="WIyWlLk6GJQsqaUBKTNV-1">
          <mxGeometry x="742" y="-284" width="133" height="44.5" as="geometry" />
        </mxCell>
        <mxCell id="akmJNxPO6BZ34CS4fUWW-11" value="SFTP" style="rounded=0;whiteSpace=wrap;html=1;fillColor=#FFFFFF;strokeColor=none;fontSize=14;" vertex="1" parent="WIyWlLk6GJQsqaUBKTNV-1">
          <mxGeometry x="972" y="-283" width="141" height="42.5" as="geometry" />
        </mxCell>
        <mxCell id="akmJNxPO6BZ34CS4fUWW-12" value="Mysql" style="rounded=0;whiteSpace=wrap;html=1;fillColor=#FFFFFF;strokeColor=none;fontSize=14;" vertex="1" parent="WIyWlLk6GJQsqaUBKTNV-1">
          <mxGeometry x="1210" y="-284" width="116" height="42.5" as="geometry" />
        </mxCell>
        <mxCell id="akmJNxPO6BZ34CS4fUWW-14" value="" style="html=1;shadow=0;dashed=0;align=center;verticalAlign=middle;shape=mxgraph.arrows2.arrow;dy=0.6;dx=40;notch=15;direction=south;" vertex="1" parent="WIyWlLk6GJQsqaUBKTNV-1">
          <mxGeometry x="961.75" y="-379" width="40.25" height="75" as="geometry" />
        </mxCell>
        <mxCell id="akmJNxPO6BZ34CS4fUWW-19" value="加工非标准人群数据" style="rounded=0;whiteSpace=wrap;html=1;labelBackgroundColor=none;fontSize=12;strokeColor=none;" vertex="1" parent="WIyWlLk6GJQsqaUBKTNV-1">
          <mxGeometry x="740.75" y="103" width="580" height="45" as="geometry" />
        </mxCell>
        <mxCell id="akmJNxPO6BZ34CS4fUWW-20" value="spark临时表" style="rounded=0;whiteSpace=wrap;html=1;labelBackgroundColor=none;fontSize=12;strokeColor=none;" vertex="1" parent="WIyWlLk6GJQsqaUBKTNV-1">
          <mxGeometry x="742" y="220" width="580" height="45" as="geometry" />
        </mxCell>
        <mxCell id="akmJNxPO6BZ34CS4fUWW-21" value="Mysql结果表" style="rounded=0;whiteSpace=wrap;html=1;labelBackgroundColor=none;fontSize=12;strokeColor=none;" vertex="1" parent="WIyWlLk6GJQsqaUBKTNV-1">
          <mxGeometry x="740.75" y="350" width="580" height="45" as="geometry" />
        </mxCell>
      </root>
    </mxGraphModel>
  </diagram>
</mxfile>
